<?xml version="1.0" encoding="UTF-8"?>
<!DOCTYPE svg PUBLIC "-//W3C//DTD SVG 1.1//EN" "http://www.w3.org/Graphics/SVG/1.1/DTD/svg11.dtd">
<!-- Creator: CorelDRAW 2020 (64-Bit) -->
<svg xmlns="http://www.w3.org/2000/svg" xml:space="preserve" width="761px" height="343px" version="1.1" style="shape-rendering:geometricPrecision; text-rendering:geometricPrecision; image-rendering:optimizeQuality; fill-rule:evenodd; clip-rule:evenodd"
viewBox="0 0 759.32 342.07"
 xmlns:xlink="http://www.w3.org/1999/xlink"
 xmlns:xodm="http://www.corel.com/coreldraw/odm/2003">
 <defs>
  <style type="text/css">
   <![CDATA[
    .fil1 {fill:#0060A0}
    .fil0 {fill:#F08517}
   ]]>
  </style>
 </defs>
 <g id="Слой_x0020_1">
  <metadata id="CorelCorpID_0Corel-Layer"/>
  <g id="_2695612961504">
   <path class="fil0" d="M95.02 273.14c-6.82,4.24 -12.49,8.43 -16.71,12.61 0,0 0,0 -0.01,0.01 -0.24,0.24 -0.48,0.48 -0.71,0.72 -0.01,0 -0.02,0.02 -0.03,0.03 -1.4,1.45 -2.63,2.9 -3.66,4.34 -0.02,0.02 -0.03,0.04 -0.05,0.06 -0.15,0.21 -0.29,0.42 -0.43,0.63 -0.03,0.05 -0.07,0.1 -0.1,0.15 -0.13,0.2 -0.26,0.39 -0.38,0.58 -0.04,0.07 -0.08,0.13 -0.11,0.19 -0.12,0.19 -0.24,0.38 -0.35,0.57 -0.04,0.06 -0.06,0.13 -0.1,0.18 -0.11,0.2 -0.22,0.39 -0.32,0.59 -0.03,0.04 -0.05,0.09 -0.08,0.15 -0.46,0.88 -0.84,1.76 -1.15,2.63 -0.02,0.07 -0.05,0.14 -0.07,0.21 -0.06,0.17 -0.11,0.34 -0.16,0.51 -0.03,0.09 -0.06,0.18 -0.08,0.28 -0.04,0.15 -0.09,0.31 -0.13,0.47l-0.07 0.3c-0.04,0.16 -0.07,0.31 -0.1,0.46 -0.02,0.11 -0.04,0.22 -0.05,0.32 -0.03,0.15 -0.06,0.3 -0.08,0.45 -0.01,0.12 -0.03,0.22 -0.04,0.33 -0.02,0.16 -0.04,0.3 -0.05,0.45 -0.01,0.11 -0.01,0.22 -0.02,0.34 -0.01,0.14 -0.02,0.28 -0.02,0.43 -0.01,0.15 -0.01,0.29 -0.01,0.44 0,0.22 0.01,0.44 0.02,0.67 0.01,0.13 0.01,0.26 0.02,0.41 0.01,0.12 0.02,0.24 0.04,0.37 0.01,0.14 0.03,0.27 0.04,0.4 0.02,0.13 0.04,0.26 0.06,0.38 0.03,0.13 0.05,0.27 0.08,0.41 0.02,0.12 0.05,0.24 0.07,0.36 0.03,0.15 0.07,0.29 0.1,0.43 0.03,0.12 0.06,0.24 0.1,0.35 0.04,0.15 0.08,0.3 0.13,0.45 0.04,0.11 0.07,0.22 0.11,0.33 0.06,0.17 0.12,0.33 0.18,0.5 0.03,0.09 0.07,0.19 0.11,0.28 0.09,0.25 0.2,0.49 0.31,0.73 0.01,0.02 0.01,0.03 0.02,0.05 0.12,0.26 0.25,0.52 0.39,0.78 0.03,0.08 0.08,0.15 0.12,0.22 0.1,0.19 0.21,0.38 0.32,0.56 0.05,0.09 0.1,0.18 0.16,0.28 0.1,0.17 0.22,0.34 0.33,0.51 0.06,0.09 0.12,0.19 0.18,0.28 0.12,0.18 0.24,0.35 0.36,0.52 0.07,0.09 0.13,0.18 0.2,0.28 0.13,0.17 0.27,0.35 0.41,0.53 0.06,0.08 0.13,0.17 0.2,0.25 0.15,0.19 0.31,0.38 0.48,0.58 0.05,0.06 0.11,0.13 0.18,0.21 0.21,0.24 0.43,0.49 0.66,0.73 0.01,0.01 0.02,0.03 0.04,0.04 0.49,0.54 1.04,1.07 1.61,1.61 0.06,0.06 0.12,0.1 0.17,0.16 0.23,0.21 0.46,0.42 0.71,0.63 0.08,0.07 0.15,0.14 0.24,0.21 0.22,0.19 0.45,0.39 0.69,0.58 0.09,0.07 0.18,0.15 0.27,0.22 0.24,0.2 0.48,0.4 0.74,0.59 0.08,0.07 0.17,0.14 0.26,0.21 0.27,0.21 0.55,0.41 0.83,0.62 0.07,0.06 0.15,0.11 0.22,0.17 0.34,0.24 0.68,0.48 1.03,0.73 0.03,0.02 0.05,0.04 0.08,0.05 0.39,0.27 0.79,0.55 1.2,0.82 1.22,0.8 2.53,1.59 3.92,2.35 -0.01,0 -0.03,-0.01 -0.04,-0.02 0.02,0.01 0.03,0.02 0.06,0.03 1.42,0.75 2.87,1.49 4.34,2.2l0.27 0.13c27,12.55 75.27,18.58 81.53,7.37 5.79,-10.36 -17.42,-30.94 -78.48,-58.98z"/>
   <path class="fil0" d="M237.87 68.85l0 -0.01c0.4,-0.25 0.79,-0.49 1.19,-0.74 0,0 0,0 0.01,-0.01 2.72,-1.72 5.26,-3.44 7.58,-5.16 0.03,-0.03 0.06,-0.04 0.09,-0.06 0.3,-0.23 0.6,-0.45 0.89,-0.68 0.04,-0.02 0.08,-0.06 0.12,-0.09 0.29,-0.22 0.58,-0.44 0.87,-0.66 0.03,-0.03 0.07,-0.06 0.1,-0.09 0.29,-0.22 0.58,-0.45 0.87,-0.68 0,-0.01 0,-0.01 0,-0.01 1.22,-0.98 2.37,-1.97 3.44,-2.95 0,0 0,0 0,0 0.23,-0.21 0.47,-0.43 0.69,-0.65 0.05,-0.04 0.1,-0.08 0.14,-0.13 0.21,-0.2 0.42,-0.4 0.62,-0.6 0.06,-0.05 0.11,-0.11 0.18,-0.17 0.19,-0.19 0.38,-0.39 0.58,-0.58 0.05,-0.06 0.11,-0.13 0.17,-0.18 0.19,-0.2 0.37,-0.39 0.55,-0.59l0.15 -0.16c0.19,-0.21 0.37,-0.41 0.56,-0.61 0.01,-0.02 0.03,-0.04 0.05,-0.06 0.63,-0.71 1.2,-1.42 1.74,-2.12 0.01,-0.02 0.02,-0.03 0.03,-0.04 0.14,-0.19 0.28,-0.38 0.42,-0.58 0.05,-0.07 0.1,-0.13 0.15,-0.2 0.12,-0.17 0.24,-0.35 0.36,-0.53 0.06,-0.08 0.12,-0.16 0.18,-0.25 0.1,-0.17 0.21,-0.34 0.32,-0.51 0.05,-0.09 0.11,-0.18 0.17,-0.26 0.1,-0.17 0.2,-0.34 0.29,-0.5 0.06,-0.1 0.1,-0.18 0.16,-0.27 0.09,-0.17 0.19,-0.34 0.28,-0.51 0.04,-0.08 0.08,-0.16 0.13,-0.24 0.09,-0.18 0.18,-0.35 0.26,-0.53 0.02,-0.05 0.04,-0.09 0.07,-0.14 0.2,-0.42 0.38,-0.85 0.55,-1.27 0,-0.02 0.02,-0.05 0.02,-0.07 0.07,-0.16 0.13,-0.33 0.18,-0.5 0.04,-0.09 0.07,-0.18 0.1,-0.28 0.06,-0.15 0.1,-0.31 0.14,-0.46 0.04,-0.1 0.08,-0.21 0.1,-0.32 0.04,-0.15 0.08,-0.29 0.12,-0.44 0.03,-0.12 0.05,-0.23 0.08,-0.34 0.03,-0.14 0.06,-0.29 0.09,-0.44 0.03,-0.11 0.05,-0.22 0.06,-0.34 0.03,-0.14 0.05,-0.29 0.07,-0.43 0.02,-0.12 0.03,-0.23 0.05,-0.35 0.02,-0.14 0.03,-0.29 0.05,-0.43 0,-0.11 0.01,-0.23 0.02,-0.35 0,-0.14 0.02,-0.28 0.02,-0.42 0.01,-0.16 0.01,-0.33 0.01,-0.5 0,-0.2 -0.01,-0.41 -0.02,-0.61 -0.01,-0.14 -0.01,-0.27 -0.02,-0.4 -0.01,-0.13 -0.03,-0.26 -0.04,-0.39 -0.02,-0.13 -0.03,-0.27 -0.04,-0.39 -0.03,-0.13 -0.05,-0.26 -0.07,-0.39 -0.02,-0.13 -0.04,-0.26 -0.06,-0.4 -0.03,-0.12 -0.06,-0.25 -0.09,-0.38 -0.03,-0.13 -0.06,-0.27 -0.09,-0.4 -0.04,-0.12 -0.07,-0.25 -0.1,-0.38 -0.04,-0.13 -0.08,-0.27 -0.13,-0.41 -0.04,-0.12 -0.08,-0.24 -0.11,-0.36 -0.05,-0.15 -0.11,-0.3 -0.17,-0.44 -0.04,-0.11 -0.08,-0.23 -0.12,-0.34 -0.08,-0.19 -0.17,-0.38 -0.25,-0.57 -0.05,-0.11 -0.09,-0.21 -0.15,-0.33 -0.1,-0.21 -0.2,-0.42 -0.32,-0.64 -0.05,-0.1 -0.11,-0.2 -0.16,-0.31 -0.09,-0.15 -0.18,-0.31 -0.27,-0.47 -0.06,-0.11 -0.13,-0.22 -0.2,-0.34 -0.09,-0.14 -0.19,-0.29 -0.28,-0.44 -0.08,-0.12 -0.15,-0.23 -0.23,-0.34 -0.1,-0.15 -0.2,-0.29 -0.31,-0.44 -0.08,-0.12 -0.16,-0.23 -0.25,-0.35 -0.11,-0.15 -0.22,-0.3 -0.34,-0.45 -0.09,-0.11 -0.17,-0.22 -0.26,-0.33 -0.13,-0.15 -0.26,-0.31 -0.4,-0.47 -0.08,-0.1 -0.17,-0.21 -0.25,-0.31 -0.17,-0.18 -0.34,-0.37 -0.51,-0.55 -0.06,-0.08 -0.13,-0.15 -0.19,-0.23 -0.25,-0.26 -0.51,-0.51 -0.76,-0.78 -0.07,-0.06 -0.14,-0.13 -0.21,-0.2 -0.2,-0.19 -0.4,-0.38 -0.6,-0.57 -0.11,-0.1 -0.21,-0.19 -0.32,-0.29 -0.18,-0.16 -0.36,-0.33 -0.54,-0.49 -0.13,-0.11 -0.25,-0.21 -0.37,-0.32 -0.18,-0.16 -0.37,-0.31 -0.56,-0.47 -0.12,-0.11 -0.26,-0.21 -0.39,-0.32 -0.2,-0.16 -0.39,-0.31 -0.58,-0.47 -0.14,-0.1 -0.28,-0.21 -0.42,-0.32 -0.2,-0.16 -0.42,-0.32 -0.63,-0.48 -0.14,-0.1 -0.28,-0.2 -0.41,-0.3 -0.25,-0.18 -0.5,-0.35 -0.74,-0.53 -0.13,-0.08 -0.24,-0.17 -0.36,-0.25 -0.38,-0.26 -0.76,-0.52 -1.16,-0.78 -0.58,-0.39 -1.19,-0.78 -1.82,-1.15 0,0 -0.01,0 -0.01,0 -0.63,-0.39 -1.28,-0.76 -1.95,-1.13l-0.15 -0.08c-1.43,-0.75 -2.87,-1.49 -4.34,-2.2l-0.27 -0.13c-27,-12.55 -75.28,-18.58 -81.53,-7.38 -5.8,10.37 17.41,30.95 78.48,58.99z"/>
   <path class="fil1" d="M240.48 292.73c56.19,-26.45 80.07,-50.33 89.08,-69.84 -22.84,71 -88.1,119.54 -163.08,119.17 -28.06,-0.13 24.45,-26 74,-49.33z"/>
   <path class="fil1" d="M0.29 209.42c4.12,27.57 27.34,81.71 87.05,112.99 -1.39,-0.76 -2.7,-1.55 -3.91,-2.35 -53.35,-35.23 62.8,-69.98 153.53,-111.19 61.05,-27.72 99.65,-49.45 95.64,-76.3 -4.12,-27.55 -27.3,-81.61 -86.92,-112.92 0,0 0,0 0,0 1.34,0.74 2.61,1.5 3.78,2.28 53.35,35.22 -62.8,69.98 -153.54,111.19 -61.04,27.72 -99.65,49.45 -95.63,76.3z"/>
   <path class="fil0" d="M308.34 170.99c-16.77,12.06 -41.35,24.25 -71.38,37.88 -22.93,10.42 -47.48,20.42 -70.52,30.12 38.62,16.27 72.95,31.7 88.17,46.8 17.26,-8.86 30.94,-17.4 41.74,-25.55 0.04,-0.03 0.08,-0.06 0.12,-0.09 0.86,-0.65 1.7,-1.29 2.51,-1.94l0.17 -0.13c0.82,-0.64 1.61,-1.27 2.38,-1.9 0.05,-0.04 0.1,-0.08 0.15,-0.12 0.76,-0.62 1.5,-1.24 2.23,-1.86 0.03,-0.02 0.07,-0.05 0.1,-0.08 0.69,-0.58 1.35,-1.16 2.01,-1.74 0.13,-0.11 0.26,-0.23 0.39,-0.34 0.6,-0.53 1.18,-1.05 1.76,-1.58 0.17,-0.16 0.35,-0.32 0.53,-0.48 0.53,-0.49 1.05,-0.98 1.56,-1.48 0.2,-0.19 0.41,-0.38 0.6,-0.57 0.48,-0.46 0.95,-0.93 1.41,-1.38 0.22,-0.22 0.43,-0.44 0.65,-0.66 0.34,-0.34 0.67,-0.68 1,-1.03 0.32,-0.33 0.63,-0.66 0.94,-0.98 0.26,-0.28 0.51,-0.55 0.77,-0.83 0.37,-0.4 0.72,-0.79 1.08,-1.18 0.2,-0.24 0.41,-0.47 0.62,-0.7 0.4,-0.47 0.8,-0.93 1.19,-1.39 0.14,-0.17 0.29,-0.34 0.44,-0.51 0.82,-0.99 1.6,-1.97 2.35,-2.94 0.03,-0.04 0.06,-0.08 0.09,-0.13 0.48,-0.62 0.94,-1.24 1.39,-1.86 0.01,-0.03 0.03,-0.05 0.05,-0.07 2.83,-3.94 5.03,-7.74 6.71,-11.38 1.44,-4.94 2.45,-9.49 3.05,-13.47 2.04,-13.65 -6.93,-25.97 -24.26,-38.43z"/>
   <path class="fil0" d="M24.54 170.99c16.77,-12.05 41.36,-24.24 71.38,-37.87 22.94,-10.42 47.49,-20.42 70.52,-30.12 -38.57,-16.26 -72.88,-31.66 -88.12,-46.76 -23,11.8 -39.65,23.03 -51.59,33.54 -0.06,0.06 -0.13,0.11 -0.19,0.17 -0.66,0.58 -1.3,1.15 -1.92,1.73 -0.12,0.11 -0.25,0.22 -0.36,0.33 -0.59,0.54 -1.16,1.08 -1.72,1.61 -0.15,0.14 -0.29,0.28 -0.43,0.42 -0.54,0.51 -1.06,1.03 -1.58,1.54 -0.15,0.15 -0.3,0.31 -0.46,0.46 -0.44,0.45 -0.88,0.9 -1.31,1.35 -0.2,0.21 -0.4,0.42 -0.6,0.63 -0.35,0.37 -0.7,0.74 -1.04,1.12 -0.25,0.26 -0.49,0.54 -0.74,0.81 -0.31,0.34 -0.61,0.69 -0.92,1.03 -0.21,0.25 -0.42,0.49 -0.63,0.73 -0.33,0.39 -0.66,0.78 -0.97,1.15 -0.24,0.28 -0.46,0.55 -0.68,0.83 -0.25,0.3 -0.49,0.6 -0.73,0.9 -0.28,0.35 -0.56,0.71 -0.83,1.06 -0.11,0.15 -0.22,0.3 -0.33,0.45 -0.39,0.51 -0.77,1.02 -1.14,1.53 -0.07,0.09 -0.14,0.2 -0.22,0.3 -0.4,0.57 -0.8,1.14 -1.18,1.7 -0.04,0.05 -0.07,0.1 -0.1,0.15 -2.19,3.23 -3.94,6.36 -5.34,9.39 -1.43,4.92 -2.43,9.44 -3.02,13.4 -2.04,13.64 6.93,25.97 24.25,38.42z"/>
   <path class="fil1" d="M92.38 49.33c-56.2,26.45 -80.07,50.34 -89.07,69.85 22.83,-71 88.09,-119.55 163.07,-119.18 28.06,0.14 -24.45,26 -74,49.33z"/>
   <path class="fil1" d="M375.18 134.32c10.92,-26.18 34.43,-42.08 64.05,-42.08 39.44,0 70.18,30.48 70.18,71.62 0,32.35 -22.04,72.55 -70.92,72.55 -29.81,0 -51.47,-16.65 -62.57,-40.95l29.43 0c7.41,10.84 20.37,17.02 35.36,17.02 20.74,0 39.26,-14.03 43.14,-37.03l-61.65 0 0 -23.93 61.65 0c-4.44,-18.51 -17.95,-35.34 -42.95,-35.34 -8.33,0 -25.18,1.87 -36.84,18.14l-28.88 0z"/>
   <path class="fil1" d="M567.34 92.24c23.88,0 41.29,14.77 41.29,37.96 0,14.03 -8.34,24.87 -19.63,30.11 12.59,3.18 24.07,14.4 24.07,34.03 0,25.42 -19.44,40.76 -47.21,40.76 -26.11,0 -47.22,-16.45 -45.37,-44.69l25.37 0c-0.19,7.29 3.33,20.76 20.92,20.76 14.63,0 20.92,-8.61 20.92,-18.7 0,-10.1 -5.37,-19.45 -19.06,-19.45l-12.97 0 0 -23.93 11.11 0c10.37,0 16.48,-6.18 16.48,-15.9 0,-10.84 -5.93,-17.01 -16.11,-17.01 -9.81,0 -16.29,5.79 -16.85,14.4l-25.36 0c0.18,-20.95 14.07,-38.34 42.4,-38.34z"/>
   <path class="fil1" d="M730.44 134.32c-6.66,-8.79 -17.58,-18.14 -34.43,-18.14 -27.97,0 -46.48,23 -46.48,47.68 0,26.55 19.81,48.62 46.66,48.62 12.77,0 24.62,-5.8 32.96,-17.02l29.43 0c-11.29,24.3 -33.32,40.95 -63.14,40.95 -47.95,0 -71.28,-40.76 -71.28,-72.55 0,-30.85 23.15,-71.62 71.66,-71.62 28.32,0 52.02,15.52 63.5,42.08l-28.88 0z"/>
  </g>
 </g>
</svg>
